<mxfile host="Electron" modified="2025-07-19T00:25:02.569Z" agent="Mozilla/5.0 (Windows NT 10.0; Win64; x64) AppleWebKit/537.36 (KHTML, like Gecko) draw.io/21.2.8 Chrome/112.0.5615.165 Electron/24.2.0 Safari/537.36" etag="fnZjJkJSjB8S8aYxgigU" version="21.2.8" type="device">
  <diagram name="PÃ¡gina-1" id="O3MgfAfJp-95jwJMB0et">
    <mxGraphModel dx="4097" dy="3580" grid="0" gridSize="10" guides="1" tooltips="1" connect="1" arrows="1" fold="1" page="1" pageScale="1" pageWidth="827" pageHeight="1169" background="#FFCE9F" math="0" shadow="0">
      <root>
        <mxCell id="0" />
        <mxCell id="1" parent="0" />
        <mxCell id="nglUvte7FAYGaXzD_qf4-1" value="Cliente" style="shape=umlActor;verticalLabelPosition=bottom;verticalAlign=top;html=1;labelBackgroundColor=none;rounded=1;" vertex="1" parent="1">
          <mxGeometry x="50" y="460" width="30" height="60" as="geometry" />
        </mxCell>
        <mxCell id="nglUvte7FAYGaXzD_qf4-9" value="&lt;font style=&quot;font-size: 100px;&quot;&gt;Tienda_Gym&lt;/font&gt;" style="text;html=1;align=center;verticalAlign=middle;resizable=0;points=[];autosize=1;strokeColor=none;fillColor=none;labelBackgroundColor=none;rounded=1;" vertex="1" parent="1">
          <mxGeometry x="237" y="-820" width="590" height="130" as="geometry" />
        </mxCell>
        <mxCell id="nglUvte7FAYGaXzD_qf4-27" value="include" style="rounded=1;orthogonalLoop=1;jettySize=auto;html=1;exitX=0.5;exitY=1;exitDx=0;exitDy=0;entryX=0.5;entryY=0;entryDx=0;entryDy=0;dashed=1;dashPattern=8 8;labelBackgroundColor=none;fontColor=default;" edge="1" parent="1" source="nglUvte7FAYGaXzD_qf4-11" target="nglUvte7FAYGaXzD_qf4-22">
          <mxGeometry relative="1" as="geometry" />
        </mxCell>
        <mxCell id="nglUvte7FAYGaXzD_qf4-28" value="Include" style="rounded=1;orthogonalLoop=1;jettySize=auto;html=1;exitX=0.5;exitY=1;exitDx=0;exitDy=0;entryX=0.5;entryY=0;entryDx=0;entryDy=0;dashed=1;dashPattern=8 8;labelBackgroundColor=none;fontColor=default;" edge="1" parent="1" source="nglUvte7FAYGaXzD_qf4-11" target="nglUvte7FAYGaXzD_qf4-23">
          <mxGeometry relative="1" as="geometry" />
        </mxCell>
        <mxCell id="nglUvte7FAYGaXzD_qf4-48" style="edgeStyle=orthogonalEdgeStyle;rounded=1;orthogonalLoop=1;jettySize=auto;html=1;exitX=1;exitY=0.5;exitDx=0;exitDy=0;entryX=0;entryY=0.5;entryDx=0;entryDy=0;labelBackgroundColor=none;fontColor=default;" edge="1" parent="1" source="nglUvte7FAYGaXzD_qf4-11" target="nglUvte7FAYGaXzD_qf4-47">
          <mxGeometry relative="1" as="geometry" />
        </mxCell>
        <mxCell id="nglUvte7FAYGaXzD_qf4-11" value="Mostrar KIts" style="ellipse;whiteSpace=wrap;html=1;labelBackgroundColor=none;rounded=1;" vertex="1" parent="1">
          <mxGeometry x="320" y="250" width="180" height="80" as="geometry" />
        </mxCell>
        <mxCell id="nglUvte7FAYGaXzD_qf4-14" value="" style="endArrow=none;html=1;rounded=1;exitX=1;exitY=0.3333333333333333;exitDx=0;exitDy=0;exitPerimeter=0;entryX=0;entryY=0.5;entryDx=0;entryDy=0;endFill=0;labelBackgroundColor=none;fontColor=default;" edge="1" parent="1" source="nglUvte7FAYGaXzD_qf4-1" target="nglUvte7FAYGaXzD_qf4-11">
          <mxGeometry width="50" height="50" relative="1" as="geometry">
            <mxPoint x="590" y="410" as="sourcePoint" />
            <mxPoint x="640" y="360" as="targetPoint" />
          </mxGeometry>
        </mxCell>
        <mxCell id="nglUvte7FAYGaXzD_qf4-22" value="Mostrar KIts Prestablecidos" style="ellipse;whiteSpace=wrap;html=1;labelBackgroundColor=none;rounded=1;" vertex="1" parent="1">
          <mxGeometry x="190" y="480" width="180" height="80" as="geometry" />
        </mxCell>
        <mxCell id="nglUvte7FAYGaXzD_qf4-29" value="Extend" style="rounded=1;orthogonalLoop=1;jettySize=auto;html=1;exitX=0.5;exitY=1;exitDx=0;exitDy=0;entryX=0.5;entryY=0;entryDx=0;entryDy=0;dashed=1;dashPattern=8 8;labelBackgroundColor=none;fontColor=default;" edge="1" parent="1" source="nglUvte7FAYGaXzD_qf4-23" target="nglUvte7FAYGaXzD_qf4-24">
          <mxGeometry relative="1" as="geometry" />
        </mxCell>
        <mxCell id="nglUvte7FAYGaXzD_qf4-30" value="Extend" style="edgeStyle=orthogonalEdgeStyle;rounded=1;orthogonalLoop=1;jettySize=auto;html=1;exitX=0.5;exitY=1;exitDx=0;exitDy=0;entryX=0.5;entryY=0;entryDx=0;entryDy=0;dashed=1;dashPattern=8 8;labelBackgroundColor=none;fontColor=default;" edge="1" parent="1" source="nglUvte7FAYGaXzD_qf4-23" target="nglUvte7FAYGaXzD_qf4-25">
          <mxGeometry relative="1" as="geometry" />
        </mxCell>
        <mxCell id="nglUvte7FAYGaXzD_qf4-31" value="Extend" style="rounded=1;orthogonalLoop=1;jettySize=auto;html=1;exitX=0.5;exitY=1;exitDx=0;exitDy=0;entryX=0.5;entryY=0;entryDx=0;entryDy=0;dashed=1;dashPattern=8 8;labelBackgroundColor=none;fontColor=default;" edge="1" parent="1" source="nglUvte7FAYGaXzD_qf4-23" target="nglUvte7FAYGaXzD_qf4-26">
          <mxGeometry relative="1" as="geometry" />
        </mxCell>
        <mxCell id="nglUvte7FAYGaXzD_qf4-23" value="Mostrar KIts Personalizados" style="ellipse;whiteSpace=wrap;html=1;labelBackgroundColor=none;rounded=1;" vertex="1" parent="1">
          <mxGeometry x="450" y="480" width="180" height="80" as="geometry" />
        </mxCell>
        <mxCell id="nglUvte7FAYGaXzD_qf4-24" value="Editar Productos" style="ellipse;whiteSpace=wrap;html=1;labelBackgroundColor=none;rounded=1;" vertex="1" parent="1">
          <mxGeometry x="234" y="720" width="180" height="80" as="geometry" />
        </mxCell>
        <mxCell id="nglUvte7FAYGaXzD_qf4-25" value="Agregar Productos" style="ellipse;whiteSpace=wrap;html=1;labelBackgroundColor=none;rounded=1;" vertex="1" parent="1">
          <mxGeometry x="450" y="720" width="180" height="80" as="geometry" />
        </mxCell>
        <mxCell id="nglUvte7FAYGaXzD_qf4-26" value="Eliminar Productos" style="ellipse;whiteSpace=wrap;html=1;labelBackgroundColor=none;rounded=1;" vertex="1" parent="1">
          <mxGeometry x="670" y="720" width="180" height="80" as="geometry" />
        </mxCell>
        <mxCell id="nglUvte7FAYGaXzD_qf4-68" style="edgeStyle=orthogonalEdgeStyle;rounded=1;orthogonalLoop=1;jettySize=auto;html=1;exitX=0.5;exitY=1;exitDx=0;exitDy=0;entryX=0.5;entryY=0;entryDx=0;entryDy=0;labelBackgroundColor=none;fontColor=default;" edge="1" parent="1" source="nglUvte7FAYGaXzD_qf4-33" target="nglUvte7FAYGaXzD_qf4-55">
          <mxGeometry relative="1" as="geometry" />
        </mxCell>
        <mxCell id="nglUvte7FAYGaXzD_qf4-33" value="Validar Stock" style="ellipse;whiteSpace=wrap;html=1;labelBackgroundColor=none;rounded=1;" vertex="1" parent="1">
          <mxGeometry x="1640" y="-10" width="180" height="80" as="geometry" />
        </mxCell>
        <mxCell id="nglUvte7FAYGaXzD_qf4-66" style="edgeStyle=orthogonalEdgeStyle;rounded=1;orthogonalLoop=1;jettySize=auto;html=1;exitX=0;exitY=0.3333333333333333;exitDx=0;exitDy=0;exitPerimeter=0;entryX=1;entryY=0.5;entryDx=0;entryDy=0;endArrow=none;endFill=0;labelBackgroundColor=none;fontColor=default;" edge="1" parent="1" source="nglUvte7FAYGaXzD_qf4-35" target="nglUvte7FAYGaXzD_qf4-42">
          <mxGeometry relative="1" as="geometry" />
        </mxCell>
        <mxCell id="nglUvte7FAYGaXzD_qf4-35" value="Admin" style="shape=umlActor;verticalLabelPosition=bottom;verticalAlign=top;html=1;labelBackgroundColor=none;rounded=1;" vertex="1" parent="1">
          <mxGeometry x="2500" y="-250" width="30" height="60" as="geometry" />
        </mxCell>
        <mxCell id="nglUvte7FAYGaXzD_qf4-39" value="Editar Productos" style="ellipse;whiteSpace=wrap;html=1;labelBackgroundColor=none;rounded=1;" vertex="1" parent="1">
          <mxGeometry x="2150" y="-584" width="180" height="80" as="geometry" />
        </mxCell>
        <mxCell id="nglUvte7FAYGaXzD_qf4-40" value="Agregar Productos" style="ellipse;whiteSpace=wrap;html=1;labelBackgroundColor=none;rounded=1;" vertex="1" parent="1">
          <mxGeometry x="1920" y="-584" width="180" height="80" as="geometry" />
        </mxCell>
        <mxCell id="nglUvte7FAYGaXzD_qf4-41" value="Eliminar Productos" style="ellipse;whiteSpace=wrap;html=1;labelBackgroundColor=none;rounded=1;" vertex="1" parent="1">
          <mxGeometry x="1690" y="-584" width="180" height="80" as="geometry" />
        </mxCell>
        <mxCell id="nglUvte7FAYGaXzD_qf4-43" value="Extend" style="rounded=1;orthogonalLoop=1;jettySize=auto;html=1;exitX=1;exitY=0.5;exitDx=0;exitDy=0;entryX=0.5;entryY=1;entryDx=0;entryDy=0;dashed=1;dashPattern=8 8;labelBackgroundColor=none;fontColor=default;" edge="1" parent="1" source="nglUvte7FAYGaXzD_qf4-42" target="nglUvte7FAYGaXzD_qf4-39">
          <mxGeometry relative="1" as="geometry" />
        </mxCell>
        <mxCell id="nglUvte7FAYGaXzD_qf4-44" value="Extend" style="edgeStyle=orthogonalEdgeStyle;rounded=1;orthogonalLoop=1;jettySize=auto;html=1;exitX=0.5;exitY=0;exitDx=0;exitDy=0;entryX=0.5;entryY=1;entryDx=0;entryDy=0;dashed=1;dashPattern=8 8;labelBackgroundColor=none;fontColor=default;" edge="1" parent="1" source="nglUvte7FAYGaXzD_qf4-42" target="nglUvte7FAYGaXzD_qf4-40">
          <mxGeometry relative="1" as="geometry" />
        </mxCell>
        <mxCell id="nglUvte7FAYGaXzD_qf4-45" value="Extend" style="rounded=1;orthogonalLoop=1;jettySize=auto;html=1;exitX=0;exitY=0.5;exitDx=0;exitDy=0;entryX=0.5;entryY=1;entryDx=0;entryDy=0;dashed=1;dashPattern=8 8;labelBackgroundColor=none;fontColor=default;" edge="1" parent="1" source="nglUvte7FAYGaXzD_qf4-42" target="nglUvte7FAYGaXzD_qf4-41">
          <mxGeometry relative="1" as="geometry" />
        </mxCell>
        <mxCell id="nglUvte7FAYGaXzD_qf4-67" value="" style="rounded=1;orthogonalLoop=1;jettySize=auto;html=1;exitX=0;exitY=0.5;exitDx=0;exitDy=0;entryX=1;entryY=0.5;entryDx=0;entryDy=0;labelBackgroundColor=none;fontColor=default;" edge="1" parent="1" source="nglUvte7FAYGaXzD_qf4-42" target="nglUvte7FAYGaXzD_qf4-72">
          <mxGeometry relative="1" as="geometry" />
        </mxCell>
        <mxCell id="nglUvte7FAYGaXzD_qf4-42" value="Mostrar Stock" style="ellipse;whiteSpace=wrap;html=1;labelBackgroundColor=none;rounded=1;" vertex="1" parent="1">
          <mxGeometry x="1920" y="-270" width="180" height="80" as="geometry" />
        </mxCell>
        <mxCell id="nglUvte7FAYGaXzD_qf4-56" style="edgeStyle=orthogonalEdgeStyle;rounded=1;orthogonalLoop=1;jettySize=auto;html=1;exitX=1;exitY=0.5;exitDx=0;exitDy=0;entryX=0;entryY=0.5;entryDx=0;entryDy=0;labelBackgroundColor=none;fontColor=default;" edge="1" parent="1" source="nglUvte7FAYGaXzD_qf4-47" target="nglUvte7FAYGaXzD_qf4-55">
          <mxGeometry relative="1" as="geometry" />
        </mxCell>
        <mxCell id="nglUvte7FAYGaXzD_qf4-47" value="Agregar al Carrito" style="ellipse;whiteSpace=wrap;html=1;labelBackgroundColor=none;rounded=1;" vertex="1" parent="1">
          <mxGeometry x="1120" y="250" width="180" height="80" as="geometry" />
        </mxCell>
        <mxCell id="nglUvte7FAYGaXzD_qf4-49" value="extend" style="rounded=1;orthogonalLoop=1;jettySize=auto;html=1;exitX=0.5;exitY=1;exitDx=0;exitDy=0;entryX=0.5;entryY=0;entryDx=0;entryDy=0;dashed=1;dashPattern=8 8;labelBackgroundColor=none;fontColor=default;" edge="1" target="nglUvte7FAYGaXzD_qf4-52" parent="1">
          <mxGeometry relative="1" as="geometry">
            <mxPoint x="1216" y="330" as="sourcePoint" />
          </mxGeometry>
        </mxCell>
        <mxCell id="nglUvte7FAYGaXzD_qf4-50" value="extend" style="edgeStyle=orthogonalEdgeStyle;rounded=1;orthogonalLoop=1;jettySize=auto;html=1;exitX=0.5;exitY=1;exitDx=0;exitDy=0;entryX=0.5;entryY=0;entryDx=0;entryDy=0;dashed=1;dashPattern=8 8;labelBackgroundColor=none;fontColor=default;" edge="1" target="nglUvte7FAYGaXzD_qf4-53" parent="1">
          <mxGeometry relative="1" as="geometry">
            <mxPoint x="1216" y="330" as="sourcePoint" />
          </mxGeometry>
        </mxCell>
        <mxCell id="nglUvte7FAYGaXzD_qf4-51" value="extend" style="rounded=1;orthogonalLoop=1;jettySize=auto;html=1;exitX=0.5;exitY=1;exitDx=0;exitDy=0;entryX=0.5;entryY=0;entryDx=0;entryDy=0;dashed=1;dashPattern=8 8;labelBackgroundColor=none;fontColor=default;" edge="1" target="nglUvte7FAYGaXzD_qf4-54" parent="1">
          <mxGeometry relative="1" as="geometry">
            <mxPoint x="1216" y="330" as="sourcePoint" />
          </mxGeometry>
        </mxCell>
        <mxCell id="nglUvte7FAYGaXzD_qf4-52" value="Editar Productos" style="ellipse;whiteSpace=wrap;html=1;labelBackgroundColor=none;rounded=1;" vertex="1" parent="1">
          <mxGeometry x="910" y="490" width="180" height="80" as="geometry" />
        </mxCell>
        <mxCell id="nglUvte7FAYGaXzD_qf4-53" value="Agregar Productos" style="ellipse;whiteSpace=wrap;html=1;labelBackgroundColor=none;rounded=1;" vertex="1" parent="1">
          <mxGeometry x="1126" y="490" width="180" height="80" as="geometry" />
        </mxCell>
        <mxCell id="nglUvte7FAYGaXzD_qf4-54" value="Eliminar Productos" style="ellipse;whiteSpace=wrap;html=1;labelBackgroundColor=none;rounded=1;" vertex="1" parent="1">
          <mxGeometry x="1346" y="490" width="180" height="80" as="geometry" />
        </mxCell>
        <mxCell id="nglUvte7FAYGaXzD_qf4-59" value="Include" style="edgeStyle=orthogonalEdgeStyle;rounded=1;orthogonalLoop=1;jettySize=auto;html=1;exitX=0.5;exitY=1;exitDx=0;exitDy=0;entryX=0.5;entryY=0;entryDx=0;entryDy=0;dashed=1;dashPattern=8 8;labelBackgroundColor=none;fontColor=default;" edge="1" parent="1" source="nglUvte7FAYGaXzD_qf4-55" target="nglUvte7FAYGaXzD_qf4-58">
          <mxGeometry relative="1" as="geometry" />
        </mxCell>
        <mxCell id="nglUvte7FAYGaXzD_qf4-62" style="edgeStyle=orthogonalEdgeStyle;rounded=1;orthogonalLoop=1;jettySize=auto;html=1;exitX=1;exitY=0.5;exitDx=0;exitDy=0;entryX=0;entryY=0.5;entryDx=0;entryDy=0;labelBackgroundColor=none;fontColor=default;" edge="1" parent="1" source="nglUvte7FAYGaXzD_qf4-55" target="nglUvte7FAYGaXzD_qf4-61">
          <mxGeometry relative="1" as="geometry" />
        </mxCell>
        <mxCell id="nglUvte7FAYGaXzD_qf4-55" value="Registro de venta" style="ellipse;whiteSpace=wrap;html=1;labelBackgroundColor=none;rounded=1;" vertex="1" parent="1">
          <mxGeometry x="1640" y="250" width="180" height="80" as="geometry" />
        </mxCell>
        <mxCell id="nglUvte7FAYGaXzD_qf4-58" value="Mostrar Precio" style="ellipse;whiteSpace=wrap;html=1;labelBackgroundColor=none;rounded=1;" vertex="1" parent="1">
          <mxGeometry x="1640" y="440" width="180" height="80" as="geometry" />
        </mxCell>
        <mxCell id="nglUvte7FAYGaXzD_qf4-61" value="Registro de factura" style="ellipse;whiteSpace=wrap;html=1;labelBackgroundColor=none;rounded=1;" vertex="1" parent="1">
          <mxGeometry x="2060" y="250" width="180" height="80" as="geometry" />
        </mxCell>
        <mxCell id="nglUvte7FAYGaXzD_qf4-74" style="edgeStyle=orthogonalEdgeStyle;rounded=1;orthogonalLoop=1;jettySize=auto;html=1;exitX=1;exitY=0.3333333333333333;exitDx=0;exitDy=0;exitPerimeter=0;entryX=0;entryY=0.5;entryDx=0;entryDy=0;endArrow=none;endFill=0;labelBackgroundColor=none;fontColor=default;" edge="1" parent="1" source="nglUvte7FAYGaXzD_qf4-69" target="nglUvte7FAYGaXzD_qf4-72">
          <mxGeometry relative="1" as="geometry" />
        </mxCell>
        <mxCell id="nglUvte7FAYGaXzD_qf4-69" value="Servidor de Stock" style="shape=umlActor;verticalLabelPosition=bottom;verticalAlign=top;html=1;labelBackgroundColor=none;rounded=1;" vertex="1" parent="1">
          <mxGeometry x="1250" y="-250" width="30" height="60" as="geometry" />
        </mxCell>
        <mxCell id="nglUvte7FAYGaXzD_qf4-75" style="rounded=1;orthogonalLoop=1;jettySize=auto;html=1;exitX=0.5;exitY=1;exitDx=0;exitDy=0;labelBackgroundColor=none;fontColor=default;" edge="1" parent="1" source="nglUvte7FAYGaXzD_qf4-72" target="nglUvte7FAYGaXzD_qf4-33">
          <mxGeometry relative="1" as="geometry" />
        </mxCell>
        <mxCell id="nglUvte7FAYGaXzD_qf4-72" value="Almacena Stock" style="ellipse;whiteSpace=wrap;html=1;labelBackgroundColor=none;rounded=1;" vertex="1" parent="1">
          <mxGeometry x="1500" y="-270" width="180" height="80" as="geometry" />
        </mxCell>
      </root>
    </mxGraphModel>
  </diagram>
</mxfile>
